Coordinates
version=1
nRows=6
nColumns=63
inDegrees=yes

Units are S.I. units (second, meters, Newtons, ...)
If the header above contains a line with 'inDegrees', this indicates whether rotational values are in degrees (yes) or radians (no).

endheader
time	pelvis_tilt	pelvis_list	pelvis_rotation	pelvis_tx	pelvis_ty	pelvis_tz	hip_flexion_r	hip_adduction_r	hip_rotation_r	knee_angle_r	knee_angle_r_beta	ankle_angle_r	subtalar_angle_r	mtp_angle_r	hip_flexion_l	hip_adduction_l	hip_rotation_l	knee_angle_l	knee_angle_l_beta	ankle_angle_l	subtalar_angle_l	mtp_angle_l	L5_S1_Flex_Ext	L5_S1_Lat_Bending	L5_S1_axial_rotation	L4_L5_Flex_Ext	L4_L5_Lat_Bending	L4_L5_axial_rotation	L3_L4_Flex_Ext	L3_L4_Lat_Bending	L3_L4_axial_rotation	L2_L3_Flex_Ext	L2_L3_Lat_Bending	L2_L3_axial_rotation	L1_L2_Flex_Ext	L1_L2_Lat_Bending	L1_L2_axial_rotation	L1_T12_Flex_Ext	L1_T12_Lat_Bending	L1_T12_axial_rotation	Abs_r3	Abs_r2	Abs_r1	Abs_t1	Abs_t2	neck_flexion	neck_bending	neck_rotation	arm_flex_r	arm_add_r	arm_rot_r	elbow_flex_r	pro_sup_r	wrist_flex_r	wrist_dev_r	arm_flex_l	arm_add_l	arm_rot_l	elbow_flex_l	pro_sup_l	wrist_flex_l	wrist_dev_l
      0.00000000	      3.05152753	     -5.54609271	     87.31346352	      0.10895840	      0.70834933	      0.79218416	     -4.47201675	      2.75200904	      8.12440618	      3.94972087	      0.06893563	     31.41586830	      4.52662654	      0.00000000	     -2.59028957	     -1.64757879	     -7.14795653	      8.73312175	      0.15242173	     35.82873526	     -1.61138498	      0.00000000	     -0.10737682	      0.23852859	     -0.07914021	     -0.19940949	      0.31724303	     -0.08408648	     -0.17640938	      0.57995842	     -0.08408648	     -0.12272097	      0.57995842	     -0.06924769	     -0.09971012	      0.48640750	     -0.06430142	     -0.06135512	      0.36948079	     -0.05935516	     -0.76698190	      2.69828313	     -0.44015412	      0.00000000	      0.00000000	     13.58765091	     -0.17379899	     -0.56863002	     13.95787554	     -9.52480488	     60.67815018	     58.21017164	     88.65297961	     22.98851092	     24.17719687	      6.47459196	    -11.86539288	     42.50744796	     65.80201342	     77.06970993	     18.69937072	     29.35939346
      0.01818182	      2.94554638	     -5.86206013	     88.63029321	      0.10679747	      0.70737477	      0.79147443	     -4.59807649	      2.70286380	      7.65667710	      3.19950566	      0.05584191	     30.81735522	      3.92888562	      0.00000000	     -2.07569219	     -1.57408222	     -6.78286983	      9.05180519	      0.15798380	     35.95119389	     -1.27752358	      0.00000000	     -0.07501573	      0.21475137	     -0.11234652	     -0.13931171	      0.28561932	     -0.11936818	     -0.12324334	      0.52214647	     -0.11936818	     -0.08573548	      0.52214647	     -0.09830320	     -0.06965961	      0.43792099	     -0.09128155	     -0.04286399	      0.33264987	     -0.08425989	     -0.53582987	      2.42931042	     -0.62483764	      0.00000000	      0.00000000	     14.27493354	      1.02545539	     -0.23377681	     11.39434283	     -9.77363505	     56.73010445	     58.58909753	     86.90732173	     21.60656609	     22.25400068	      6.64347164	    -11.56285304	     42.45930101	     65.98957110	     77.64124729	     18.01872302	     27.75029599
      0.03636364	      2.91971505	     -6.03435294	     89.74867777	      0.10504538	      0.70680451	      0.79108627	     -4.73402571	      2.72777621	      6.94419487	      2.67361581	      0.04666340	     30.46446952	      3.93417486	      0.00000000	     -1.70931999	     -1.60903153	     -6.87780130	      9.34671565	      0.16313096	     36.23560594	     -0.33643265	      0.00000000	     -0.06758031	      0.20012373	     -0.17565168	     -0.12550340	      0.26616457	     -0.18662991	     -0.11102770	      0.48658085	     -0.18662991	     -0.07723754	      0.48658085	     -0.15369522	     -0.06275508	      0.40809232	     -0.14271699	     -0.03861539	      0.30999166	     -0.13173876	     -0.48271942	      2.26383971	     -0.97692193	      0.00000000	      0.00000000	     15.06132783	      1.71474836	     -0.33712031	      9.82553624	    -10.05486798	     54.98295582	     59.02114625	     80.31924570	     18.86347126	     22.60440805	      6.66288313	    -11.47215369	     42.38565425	     66.24698893	     79.11714799	     17.55973785	     25.43699316
      0.05454545	      2.88502639	     -6.17441909	     90.69030086	      0.10326179	      0.70654422	      0.79112810	     -4.80149858	      2.73447486	      7.02866141	      2.27577553	      0.03971978	     30.12139933	      3.07878891	      0.00000000	     -1.34812594	     -1.60439009	     -6.82268842	      9.59596245	      0.16748114	     36.45563513	      0.41951665	      0.00000000	     -0.06292538	      0.19297587	     -0.27770752	     -0.11685873	      0.25665791	     -0.29506424	     -0.10338011	      0.46920153	     -0.29506424	     -0.07191742	      0.46920153	     -0.24299408	     -0.05843251	      0.39351640	     -0.22563736	     -0.03595556	      0.29891963	     -0.20828064	     -0.44946972	      2.18298166	     -1.54452590	      0.00000000	      0.00000000	     15.67452064	      2.12859136	     -0.14213762	      9.07176461	    -10.37687312	     54.83095838	     59.34404202	     70.18280342	     15.78261364	     24.34908045	      6.54895372	    -11.48833384	     42.42566480	     66.47811708	     79.35539567	     16.31473717	     23.50889746
      0.07272727	      2.86098079	     -6.21273895	     91.51336609	      0.10184614	      0.70652259	      0.79112452	     -4.88302534	      2.75334213	      6.72168317	      2.04502451	      0.03569241	     30.04558529	      2.86654689	      0.00000000	     -1.13276968	     -1.61456790	     -6.85276812	      9.76361172	      0.17040717	     36.69514234	      1.23749303	      0.00000000	     -0.06728636	      0.18643925	     -0.41576762	     -0.12495751	      0.24796420	     -0.44175310	     -0.11054477	      0.45330840	     -0.44175310	     -0.07690159	      0.45330840	     -0.36379667	     -0.06248212	      0.38018692	     -0.33781119	     -0.03844743	      0.28879440	     -0.31182572	     -0.48061977	      2.10903810	     -2.31237479	      0.00000000	      0.00000000	     16.14339314	      2.53159360	      0.10524623	      8.95198736	    -10.86290687	     56.15768290	     60.01850012	     60.81335459	     11.28291212	     25.10714417	      6.14099636	    -11.53077998	     41.89660856	     66.79851945	     79.88003297	     15.91268039	     22.30122048
      0.09090909	      2.87722129	     -6.21887907	     92.28972402	      0.10052714	      0.70669960	      0.79136096	     -4.91847656	      2.80976898	      6.26869918	      1.93116911	      0.03370526	     30.07955246	      2.90202243	      0.00000000	     -0.92437062	     -1.64613742	     -6.43628816	      9.91932786	      0.17312493	     36.83690742	      1.57173477	      0.00000000	     -0.07721852	      0.18710358	     -0.56212952	     -0.14340251	      0.24884776	     -0.59726262	     -0.12686230	      0.45492364	     -0.59726262	     -0.08825305	      0.45492364	     -0.49186333	     -0.07170512	      0.38154162	     -0.45673024	     -0.04412266	      0.28982344	     -0.42159714	     -0.55156416	      2.11655311	     -3.12639576	      0.00000000	      0.00000000	     16.54246102	      2.70144647	      0.24384176	      8.96144391	    -11.09807207	     56.78438241	     60.40896759	     56.18294963	      9.60136527	     25.66683601	      5.80722704	    -11.67816541	     41.70301055	     67.10892298	     80.08010667	     15.05661380	     21.13485252
